<svg width="32" height="32" viewBox="0 0 32 32" fill="none" xmlns="http://www.w3.org/2000/svg">
<path d="M31.625 16C31.625 24.6294 24.6294 31.625 16 31.625C7.37055 31.625 0.375 24.6294 0.375 16C0.375 7.37055 7.37055 0.375 16 0.375C24.6294 0.375 31.625 7.37055 31.625 16Z" fill="url(#paint0_linear_737_80)"/>
<path fill-rule="evenodd" clip-rule="evenodd" d="M16 30.5C24.0081 30.5 30.5 24.0081 30.5 16C30.5 7.99187 24.0081 1.5 16 1.5C7.99187 1.5 1.5 7.99187 1.5 16C1.5 24.0081 7.99187 30.5 16 30.5ZM16 32C24.8366 32 32 24.8366 32 16C32 7.16344 24.8366 0 16 0C7.16344 0 0 7.16344 0 16C0 24.8366 7.16344 32 16 32Z" fill="white"/>
<path d="M15.9936 24.8767H10.1194C9.34877 24.8767 8.67923 24.4623 8.36341 23.7918C8.04758 23.1213 8.16128 22.3533 8.65396 21.7926L13.505 16.3678C13.505 16.3678 13.505 16.3434 13.505 16.3312L8.65396 10.9065C8.14865 10.3457 8.03495 9.57769 8.36341 8.90722C8.69186 8.23674 9.3614 7.82227 10.1194 7.82227H15.9936L17.7496 8.72436L15.9936 9.66303H10.1067C10.1067 9.66303 10.0941 9.68741 10.0941 9.6996C10.0941 9.6996 10.0941 9.6996 10.0941 9.71179L14.9451 15.1366C15.5641 15.8314 15.5641 16.8798 14.9451 17.5746L10.0941 22.9994C10.0941 22.9994 10.0941 22.9994 10.0941 23.0116C10.0941 23.0116 10.0941 23.0482 10.1067 23.0482C10.1067 23.0482 10.1067 23.0482 10.1194 23.0482H15.9936V24.8889V24.8767Z" fill="white"/>
<path d="M18.4949 16.3678C18.4949 16.3678 18.4949 16.3434 18.4949 16.3312L23.346 10.9065C23.8513 10.3457 23.965 9.57769 23.6365 8.90722C23.3081 8.23674 22.6385 7.82227 21.8805 7.82227H16.0063L17.7622 8.72436L16.0063 9.65084H21.8932C21.8932 9.65084 21.9058 9.67522 21.9058 9.68741C21.9058 9.68741 21.9058 9.68741 21.9058 9.6996L17.0548 15.1244C16.4358 15.8192 16.4358 16.8676 17.0548 17.5625L21.9058 22.9872C21.9058 22.9872 21.9058 22.9872 21.9058 22.9994C21.9058 22.9994 21.9058 23.036 21.8932 23.036C21.8932 23.036 21.8932 23.036 21.8805 23.036H15.9936L14.225 23.9868L15.9936 24.8646H21.8679C22.6385 24.8646 23.3081 24.4501 23.6239 23.7796C23.9397 23.1091 23.826 22.3411 23.3333 21.7804L18.4823 16.3556L18.4949 16.3678Z" fill="white"/>
<defs>
<linearGradient id="paint0_linear_737_80" x1="7.53646" y1="4.28125" x2="25.7656" y2="27.7187" gradientUnits="userSpaceOnUse">
<stop offset="0.394929" stop-color="#6ADDFF"/>
<stop offset="0.878969" stop-color="#06C6FF"/>
</linearGradient>
</defs>
</svg>
