<svg width="128" height="128" viewBox="0 0 128 128" fill="none" xmlns="http://www.w3.org/2000/svg">
<path d="M126.5 64C126.5 98.5178 98.5178 126.5 64 126.5C29.4822 126.5 1.5 98.5178 1.5 64C1.5 29.4822 29.4822 1.5 64 1.5C98.5178 1.5 126.5 29.4822 126.5 64Z" fill="url(#paint0_linear_737_72)"/>
<path fill-rule="evenodd" clip-rule="evenodd" d="M64 122C96.0325 122 122 96.0325 122 64C122 31.9675 96.0325 6 64 6C31.9675 6 6 31.9675 6 64C6 96.0325 31.9675 122 64 122ZM64 128C99.3462 128 128 99.3462 128 64C128 28.6538 99.3462 0 64 0C28.6538 0 0 28.6538 0 64C0 99.3462 28.6538 128 64 128Z" fill="white"/>
<path d="M63.9746 99.5067H40.4775C37.3951 99.5067 34.7169 97.8488 33.4536 95.1669C32.1903 92.485 32.6451 89.413 34.6158 87.17L54.0199 65.4709C54.0199 65.4709 54.0199 65.3734 54.0199 65.3246L34.6158 43.6256C32.5946 41.3825 32.1398 38.3105 33.4536 35.6286C34.7674 32.9467 37.4456 31.2888 40.4775 31.2888H63.9746L70.9984 34.8972L63.9746 38.6519H40.4269C40.4269 38.6519 40.3764 38.7494 40.3764 38.7982C40.3764 38.7982 40.3764 38.7982 40.3764 38.8469L59.7805 60.546C62.2565 63.3254 62.2565 67.5189 59.7805 70.2983L40.3764 91.9974C40.3764 91.9974 40.3764 91.9974 40.3764 92.0462C40.3764 92.0462 40.3764 92.1924 40.4269 92.1924C40.4269 92.1924 40.4269 92.1924 40.4775 92.1924H63.9746V99.5555V99.5067Z" fill="white"/>
<path d="M73.9798 65.4709C73.9798 65.4709 73.9798 65.3734 73.9798 65.3246L93.3838 43.6256C95.4051 41.3825 95.8598 38.3105 94.546 35.6286C93.2322 32.9467 90.5541 31.2888 87.5222 31.2888H64.0251L71.049 34.8972L64.0251 38.6031H87.5727C87.5727 38.6031 87.6232 38.7006 87.6232 38.7494C87.6232 38.7494 87.6232 38.7494 87.6232 38.7982L68.2192 60.4972C65.7432 63.2766 65.7432 67.4702 68.2192 70.2496L87.6232 91.9486C87.6232 91.9486 87.6232 91.9486 87.6232 91.9974C87.6232 91.9974 87.6232 92.1437 87.5727 92.1437C87.5727 92.1437 87.5727 92.1437 87.5222 92.1437H63.9746L56.9002 95.9471L63.9746 99.458H87.4716C90.5541 99.458 93.2322 97.8001 94.4955 95.1182C95.7588 92.4362 95.304 89.3643 93.3333 87.1212L73.9292 65.4222L73.9798 65.4709Z" fill="white"/>
<defs>
<linearGradient id="paint0_linear_737_72" x1="30.1458" y1="17.125" x2="103.062" y2="110.875" gradientUnits="userSpaceOnUse">
<stop offset="0.394929" stop-color="#6ADDFF"/>
<stop offset="0.878969" stop-color="#06C6FF"/>
</linearGradient>
</defs>
</svg>
