<svg width="64" height="64" viewBox="0 0 64 64" fill="none" xmlns="http://www.w3.org/2000/svg">
<path d="M63.25 32C63.25 49.2589 49.2589 63.25 32 63.25C14.7411 63.25 0.75 49.2589 0.75 32C0.75 14.7411 14.7411 0.75 32 0.75C49.2589 0.75 63.25 14.7411 63.25 32Z" fill="url(#paint0_linear_737_76)"/>
<path fill-rule="evenodd" clip-rule="evenodd" d="M32 61C48.0163 61 61 48.0163 61 32C61 15.9837 48.0163 3 32 3C15.9837 3 3 15.9837 3 32C3 48.0163 15.9837 61 32 61ZM32 64C49.6731 64 64 49.6731 64 32C64 14.3269 49.6731 0 32 0C14.3269 0 0 14.3269 0 32C0 49.6731 14.3269 64 32 64Z" fill="white"/>
<path d="M31.9873 49.7535H20.2387C18.6975 49.7535 17.3585 48.9245 16.7268 47.5836C16.0952 46.2426 16.3226 44.7066 17.3079 43.5851L27.0099 32.7356C27.0099 32.7356 27.0099 32.6868 27.0099 32.6624L17.3079 21.8129C16.2973 20.6914 16.0699 19.1554 16.7268 17.8144C17.3837 16.4735 18.7228 15.6445 20.2387 15.6445H31.9873L35.4992 17.4487L31.9873 19.3261H20.2135C20.2135 19.3261 20.1882 19.3748 20.1882 19.3992C20.1882 19.3992 20.1882 19.3992 20.1882 19.4236L29.8902 30.2731C31.1282 31.6628 31.1282 33.7596 29.8902 35.1493L20.1882 45.9988C20.1882 45.9988 20.1882 45.9988 20.1882 46.0232C20.1882 46.0232 20.1882 46.0963 20.2135 46.0963C20.2135 46.0963 20.2135 46.0963 20.2387 46.0963H31.9873V49.7779V49.7535Z" fill="white"/>
<path d="M36.9899 32.7356C36.9899 32.7356 36.9899 32.6868 36.9899 32.6624L46.6919 21.8129C47.7025 20.6914 47.9299 19.1554 47.273 17.8144C46.6161 16.4735 45.277 15.6445 43.7611 15.6445H32.0125L35.5245 17.4487L32.0125 19.3017H43.7863C43.7863 19.3017 43.8116 19.3504 43.8116 19.3748C43.8116 19.3748 43.8116 19.3748 43.8116 19.3992L34.1096 30.2487C32.8716 31.6384 32.8716 33.7352 34.1096 35.1249L43.8116 45.9744C43.8116 45.9744 43.8116 45.9744 43.8116 45.9988C43.8116 45.9988 43.8116 46.072 43.7863 46.072C43.7863 46.072 43.7864 46.072 43.7611 46.072H31.9873L28.4501 47.9737L31.9873 49.7291H43.7358C45.277 49.7291 46.6161 48.9002 47.2477 47.5592C47.8794 46.2182 47.652 44.6822 46.6666 43.5607L36.9646 32.7112L36.9899 32.7356Z" fill="white"/>
<defs>
<linearGradient id="paint0_linear_737_76" x1="15.0729" y1="8.5625" x2="51.5312" y2="55.4375" gradientUnits="userSpaceOnUse">
<stop offset="0.394929" stop-color="#6ADDFF"/>
<stop offset="0.878969" stop-color="#06C6FF"/>
</linearGradient>
</defs>
</svg>
