<svg width="256" height="256" viewBox="0 0 256 256" fill="none" xmlns="http://www.w3.org/2000/svg">
<path d="M253 128C253 197.036 197.036 253 128 253C58.9644 253 3 197.036 3 128C3 58.9644 58.9644 3 128 3C197.036 3 253 58.9644 253 128Z" fill="url(#paint0_linear_737_68)"/>
<path fill-rule="evenodd" clip-rule="evenodd" d="M128 244C192.065 244 244 192.065 244 128C244 63.935 192.065 12 128 12C63.935 12 12 63.935 12 128C12 192.065 63.935 244 128 244ZM128 256C198.692 256 256 198.692 256 128C256 57.3076 198.692 0 128 0C57.3076 0 0 57.3076 0 128C0 198.692 57.3076 256 128 256Z" fill="white"/>
<path d="M127.949 199.014H80.955C74.7901 199.014 69.4338 195.698 66.9072 190.334C64.3807 184.97 65.2902 178.826 69.2317 174.34L108.04 130.942C108.04 130.942 108.04 130.747 108.04 130.65L69.2317 87.2514C65.1892 82.7653 64.2796 76.6213 66.9072 71.2575C69.5349 65.8937 74.8912 62.5779 80.955 62.5779H127.949L141.997 69.7946L127.949 77.304H80.8539C80.8539 77.304 80.7528 77.499 80.7528 77.5965C80.7528 77.5965 80.7528 77.5966 80.7528 77.6941L119.561 121.092C124.513 126.651 124.513 135.038 119.561 140.597L80.7528 183.995C80.7528 183.995 80.7528 183.995 80.7528 184.093C80.7528 184.093 80.7528 184.385 80.8539 184.385C80.8539 184.385 80.8539 184.385 80.955 184.385H127.949V199.111V199.014Z" fill="white"/>
<path d="M147.96 130.942C147.96 130.942 147.96 130.747 147.96 130.65L186.768 87.2514C190.81 82.7653 191.72 76.6213 189.092 71.2575C186.464 65.8937 181.108 62.5779 175.044 62.5779H128.05L142.098 69.7946L128.05 77.2065H175.145C175.145 77.2065 175.246 77.4015 175.246 77.499C175.246 77.499 175.246 77.499 175.246 77.5965L136.438 120.995C131.486 126.554 131.486 134.941 136.438 140.499L175.246 183.898C175.246 183.898 175.246 183.898 175.246 183.995C175.246 183.995 175.246 184.288 175.145 184.288C175.145 184.288 175.145 184.288 175.044 184.288H127.949L113.8 191.894L127.949 198.916H174.943C181.108 198.916 186.464 195.6 188.991 190.237C191.518 184.873 190.608 178.729 186.667 174.243L147.858 130.845L147.96 130.942Z" fill="white"/>
<defs>
<linearGradient id="paint0_linear_737_68" x1="60.2917" y1="34.25" x2="206.125" y2="221.75" gradientUnits="userSpaceOnUse">
<stop offset="0.394929" stop-color="#6ADDFF"/>
<stop offset="0.878969" stop-color="#06C6FF"/>
</linearGradient>
</defs>
</svg>
