<svg width="16" height="16" viewBox="0 0 16 16" fill="none" xmlns="http://www.w3.org/2000/svg">
<path d="M15.8125 8C15.8125 12.3147 12.3147 15.8125 8 15.8125C3.68528 15.8125 0.1875 12.3147 0.1875 8C0.1875 3.68528 3.68528 0.1875 8 0.1875C12.3147 0.1875 15.8125 3.68528 15.8125 8Z" fill="url(#paint0_linear_737_84)"/>
<path fill-rule="evenodd" clip-rule="evenodd" d="M8 15.25C12.0041 15.25 15.25 12.0041 15.25 8C15.25 3.99594 12.0041 0.75 8 0.75C3.99594 0.75 0.75 3.99594 0.75 8C0.75 12.0041 3.99594 15.25 8 15.25ZM8 16C12.4183 16 16 12.4183 16 8C16 3.58172 12.4183 0 8 0C3.58172 0 0 3.58172 0 8C0 12.4183 3.58172 16 8 16Z" fill="white"/>
<path d="M7.99682 12.4384H5.05968C4.67438 12.4384 4.33961 12.2311 4.1817 11.8959C4.02379 11.5607 4.08064 11.1767 4.32698 10.8963L6.75249 8.1839C6.75249 8.1839 6.75249 8.1717 6.75249 8.16561L4.32698 5.45323C4.07432 5.17285 4.01748 4.78885 4.1817 4.45361C4.34593 4.11837 4.6807 3.91113 5.05968 3.91113H7.99682L8.8748 4.36218L7.99682 4.83151H5.05337C5.05337 4.83151 5.04705 4.8437 5.04705 4.8498C5.04705 4.8498 5.04705 4.8498 5.04705 4.8559L7.47256 7.56828C7.78206 7.91571 7.78206 8.43989 7.47256 8.78732L5.04705 11.4997C5.04705 11.4997 5.04705 11.4997 5.04705 11.5058C5.04705 11.5058 5.04705 11.5241 5.05337 11.5241C5.05337 11.5241 5.05337 11.5241 5.05968 11.5241H7.99682V12.4445V12.4384Z" fill="white"/>
<path d="M9.24747 8.1839C9.24747 8.1839 9.24747 8.1717 9.24747 8.16561L11.673 5.45323C11.9256 5.17285 11.9825 4.78885 11.8183 4.45361C11.654 4.11837 11.3193 3.91113 10.9403 3.91113H8.00314L8.88112 4.36218L8.00314 4.82542H10.9466C10.9466 4.82542 10.9529 4.83761 10.9529 4.8437C10.9529 4.8437 10.9529 4.8437 10.9529 4.8498L8.5274 7.56218C8.21789 7.90961 8.21789 8.4338 8.5274 8.78123L10.9529 11.4936C10.9529 11.4936 10.9529 11.4936 10.9529 11.4997C10.9529 11.4997 10.9529 11.518 10.9466 11.518C10.9466 11.518 10.9466 11.518 10.9403 11.518H7.99682L7.11252 11.9934L7.99682 12.4323H10.934C11.3193 12.4323 11.654 12.225 11.8119 11.8898C11.9698 11.5546 11.913 11.1706 11.6667 10.8902L9.24116 8.1778L9.24747 8.1839Z" fill="white"/>
<defs>
<linearGradient id="paint0_linear_737_84" x1="3.76823" y1="2.14062" x2="12.8828" y2="13.8594" gradientUnits="userSpaceOnUse">
<stop offset="0.394929" stop-color="#6ADDFF"/>
<stop offset="0.878969" stop-color="#06C6FF"/>
</linearGradient>
</defs>
</svg>
