<svg width="1920" height="1080" viewBox="0 0 1920 1080" fill="none" xmlns="http://www.w3.org/2000/svg">
<rect width="1920" height="1080" fill="url(#paint0_linear_730_201)"/>
<path d="M522.81 582C519.994 582 517.818 581.275 516.282 579.824C514.831 578.288 514.106 576.112 514.106 573.296V500.464C514.106 497.648 514.831 495.515 516.282 494.064C517.818 492.528 519.994 491.76 522.81 491.76H547.642C562.746 491.76 574.394 495.643 582.586 503.408C590.863 511.173 595.002 522.309 595.002 536.816C595.002 544.069 593.935 550.512 591.802 556.144C589.754 561.691 586.682 566.384 582.586 570.224C578.575 574.064 573.626 577.008 567.738 579.056C561.935 581.019 555.237 582 547.642 582H522.81ZM530.49 568.432H546.618C551.909 568.432 556.474 567.792 560.314 566.512C564.239 565.147 567.482 563.184 570.042 560.624C572.687 557.979 574.65 554.693 575.93 550.768C577.21 546.757 577.85 542.107 577.85 536.816C577.85 526.235 575.247 518.341 570.042 513.136C564.837 507.931 557.029 505.328 546.618 505.328H530.49V568.432ZM640.918 583.28C633.835 583.28 627.734 581.957 622.614 579.312C617.494 576.667 613.526 572.912 610.71 568.048C607.979 563.184 606.614 557.424 606.614 550.768C606.614 544.283 607.937 538.608 610.582 533.744C613.313 528.88 617.025 525.083 621.718 522.352C626.497 519.536 631.915 518.128 637.974 518.128C642.411 518.128 646.379 518.853 649.878 520.304C653.462 521.755 656.491 523.845 658.966 526.576C661.526 529.307 663.446 532.635 664.726 536.56C666.091 540.4 666.774 544.752 666.774 549.616C666.774 551.152 666.219 552.347 665.11 553.2C664.086 553.968 662.593 554.352 660.63 554.352H619.542V545.136H655.51L653.462 547.056C653.462 543.131 652.865 539.845 651.67 537.2C650.561 534.555 648.897 532.549 646.678 531.184C644.545 529.733 641.857 529.008 638.614 529.008C635.03 529.008 631.958 529.861 629.398 531.568C626.923 533.189 625.003 535.536 623.638 538.608C622.358 541.595 621.718 545.179 621.718 549.36V550.256C621.718 557.253 623.339 562.501 626.582 566C629.91 569.413 634.774 571.12 641.174 571.12C643.393 571.12 645.867 570.864 648.598 570.352C651.414 569.755 654.059 568.773 656.534 567.408C658.326 566.384 659.905 565.957 661.27 566.128C662.635 566.213 663.702 566.683 664.47 567.536C665.323 568.389 665.835 569.456 666.006 570.736C666.177 571.931 665.921 573.168 665.238 574.448C664.641 575.728 663.574 576.837 662.038 577.776C659.051 579.653 655.595 581.061 651.67 582C647.83 582.853 644.246 583.28 640.918 583.28ZM689.429 583.024C686.784 583.024 684.693 582.299 683.157 580.848C681.706 579.312 680.981 577.136 680.981 574.32V500.464C680.981 497.648 681.706 495.515 683.157 494.064C684.693 492.528 686.869 491.76 689.685 491.76H734.357C736.576 491.76 738.24 492.315 739.349 493.424C740.458 494.533 741.013 496.112 741.013 498.16C741.013 500.293 740.458 501.957 739.349 503.152C738.24 504.261 736.576 504.816 734.357 504.816H697.365V530.288H731.669C733.802 530.288 735.424 530.843 736.533 531.952C737.728 533.061 738.325 534.64 738.325 536.688C738.325 538.821 737.728 540.485 736.533 541.68C735.424 542.789 733.802 543.344 731.669 543.344H697.365V574.32C697.365 580.123 694.72 583.024 689.429 583.024ZM764.381 582.896C761.821 582.896 759.858 582.128 758.493 580.592C757.128 579.056 756.445 576.923 756.445 574.192V527.216C756.445 524.4 757.128 522.267 758.493 520.816C759.858 519.28 761.821 518.512 764.381 518.512C766.941 518.512 768.904 519.28 770.269 520.816C771.72 522.267 772.445 524.4 772.445 527.216V574.192C772.445 576.923 771.762 579.056 770.397 580.592C769.032 582.128 767.026 582.896 764.381 582.896ZM764.381 506.608C761.394 506.608 759.048 505.883 757.341 504.432C755.72 502.896 754.909 500.805 754.909 498.16C754.909 495.429 755.72 493.339 757.341 491.888C759.048 490.437 761.394 489.712 764.381 489.712C767.453 489.712 769.8 490.437 771.421 491.888C773.042 493.339 773.853 495.429 773.853 498.16C773.853 500.805 773.042 502.896 771.421 504.432C769.8 505.883 767.453 506.608 764.381 506.608ZM856.46 583.28C852.705 583.28 848.951 582.981 845.196 582.384C841.441 581.872 837.9 581.061 834.572 579.952C831.244 578.757 828.257 577.307 825.612 575.6C824.076 574.576 823.009 573.339 822.412 571.888C821.815 570.437 821.601 569.029 821.772 567.664C822.028 566.213 822.583 564.976 823.436 563.952C824.375 562.843 825.527 562.16 826.892 561.904C828.257 561.648 829.751 562.032 831.372 563.056C835.127 565.275 839.095 566.896 843.276 567.92C847.457 568.944 851.852 569.456 856.46 569.456C863.201 569.456 868.108 568.347 871.18 566.128C874.252 563.824 875.788 560.88 875.788 557.296C875.788 554.309 874.679 551.963 872.46 550.256C870.327 548.549 866.615 547.141 861.324 546.032L847.244 543.088C839.137 541.381 833.079 538.523 829.068 534.512C825.143 530.416 823.18 525.04 823.18 518.384C823.18 514.203 824.033 510.405 825.74 506.992C827.447 503.579 829.836 500.635 832.908 498.16C836.065 495.685 839.777 493.808 844.044 492.528C848.396 491.163 853.175 490.48 858.38 490.48C863.5 490.48 868.364 491.12 872.972 492.4C877.58 493.68 881.719 495.557 885.388 498.032C886.753 498.971 887.649 500.123 888.076 501.488C888.588 502.853 888.716 504.219 888.46 505.584C888.204 506.864 887.607 507.973 886.668 508.912C885.729 509.851 884.535 510.405 883.084 510.576C881.719 510.747 880.14 510.32 878.348 509.296C875.191 507.504 871.991 506.224 868.748 505.456C865.505 504.688 862.007 504.304 858.252 504.304C854.327 504.304 850.956 504.859 848.14 505.968C845.324 507.077 843.148 508.656 841.612 510.704C840.161 512.667 839.436 515.013 839.436 517.744C839.436 520.816 840.46 523.291 842.508 525.168C844.556 526.96 848.055 528.368 853.004 529.392L866.956 532.336C875.404 534.128 881.676 536.944 885.772 540.784C889.953 544.624 892.044 549.744 892.044 556.144C892.044 560.24 891.191 563.952 889.484 567.28C887.863 570.608 885.473 573.467 882.316 575.856C879.244 578.245 875.532 580.08 871.18 581.36C866.828 582.64 861.921 583.28 856.46 583.28ZM912.506 582.896C909.946 582.896 907.983 582.128 906.618 580.592C905.253 579.056 904.57 576.923 904.57 574.192V527.216C904.57 524.4 905.253 522.267 906.618 520.816C907.983 519.28 909.946 518.512 912.506 518.512C915.066 518.512 917.029 519.28 918.394 520.816C919.845 522.267 920.57 524.4 920.57 527.216V574.192C920.57 576.923 919.887 579.056 918.522 580.592C917.157 582.128 915.151 582.896 912.506 582.896ZM912.506 506.608C909.519 506.608 907.173 505.883 905.466 504.432C903.845 502.896 903.034 500.805 903.034 498.16C903.034 495.429 903.845 493.339 905.466 491.888C907.173 490.437 909.519 489.712 912.506 489.712C915.578 489.712 917.925 490.437 919.546 491.888C921.167 493.339 921.978 495.429 921.978 498.16C921.978 500.805 921.167 502.896 919.546 504.432C917.925 505.883 915.578 506.608 912.506 506.608ZM945.387 583.024C942.827 583.024 940.864 582.341 939.499 580.976C938.134 579.525 937.451 577.477 937.451 574.832V526.448C937.451 523.803 938.134 521.797 939.499 520.432C940.864 519.067 942.784 518.384 945.259 518.384C947.734 518.384 949.654 519.067 951.019 520.432C952.384 521.797 953.067 523.803 953.067 526.448V535.792L951.659 531.952C953.366 527.685 956.011 524.315 959.595 521.84C963.179 519.365 967.446 518.128 972.395 518.128C977.43 518.128 981.568 519.323 984.811 521.712C988.054 524.101 990.315 527.771 991.595 532.72H989.803C991.51 528.197 994.326 524.656 998.251 522.096C1002.18 519.451 1006.7 518.128 1011.82 518.128C1016.6 518.128 1020.52 519.067 1023.6 520.944C1026.75 522.821 1029.1 525.68 1030.64 529.52C1032.17 533.275 1032.94 538.053 1032.94 543.856V574.832C1032.94 577.477 1032.21 579.525 1030.76 580.976C1029.4 582.341 1027.44 583.024 1024.88 583.024C1022.32 583.024 1020.35 582.341 1018.99 580.976C1017.62 579.525 1016.94 577.477 1016.94 574.832V544.496C1016.94 539.717 1016.13 536.219 1014.51 534C1012.97 531.781 1010.33 530.672 1006.57 530.672C1002.39 530.672 999.104 532.165 996.715 535.152C994.326 538.053 993.131 542.107 993.131 547.312V574.832C993.131 577.477 992.448 579.525 991.083 580.976C989.718 582.341 987.755 583.024 985.195 583.024C982.635 583.024 980.63 582.341 979.179 580.976C977.814 579.525 977.131 577.477 977.131 574.832V544.496C977.131 539.717 976.32 536.219 974.699 534C973.163 531.781 970.56 530.672 966.891 530.672C962.71 530.672 959.424 532.165 957.035 535.152C954.646 538.053 953.451 542.107 953.451 547.312V574.832C953.451 580.293 950.763 583.024 945.387 583.024ZM1057.38 606.064C1054.82 606.064 1052.86 605.381 1051.49 604.016C1050.13 602.651 1049.45 600.645 1049.45 598V526.448C1049.45 523.803 1050.13 521.797 1051.49 520.432C1052.86 519.067 1054.78 518.384 1057.25 518.384C1059.81 518.384 1061.78 519.067 1063.14 520.432C1064.51 521.797 1065.19 523.803 1065.19 526.448V536.432L1063.78 532.592C1065.06 528.24 1067.66 524.741 1071.59 522.096C1075.6 519.451 1080.25 518.128 1085.54 518.128C1091 518.128 1095.78 519.451 1099.88 522.096C1104.06 524.741 1107.3 528.496 1109.61 533.36C1111.91 538.139 1113.06 543.899 1113.06 550.64C1113.06 557.296 1111.91 563.099 1109.61 568.048C1107.3 572.912 1104.1 576.667 1100.01 579.312C1095.91 581.957 1091.09 583.28 1085.54 583.28C1080.34 583.28 1075.77 582 1071.85 579.44C1067.92 576.795 1065.27 573.381 1063.91 569.2H1065.45V598C1065.45 600.645 1064.72 602.651 1063.27 604.016C1061.9 605.381 1059.94 606.064 1057.38 606.064ZM1081.06 571.12C1084.22 571.12 1086.99 570.352 1089.38 568.816C1091.77 567.28 1093.61 565.019 1094.89 562.032C1096.25 558.96 1096.93 555.163 1096.93 550.64C1096.93 543.813 1095.48 538.736 1092.58 535.408C1089.68 531.995 1085.84 530.288 1081.06 530.288C1077.9 530.288 1075.13 531.056 1072.74 532.592C1070.35 534.043 1068.47 536.304 1067.11 539.376C1065.83 542.363 1065.19 546.117 1065.19 550.64C1065.19 557.381 1066.64 562.501 1069.54 566C1072.44 569.413 1076.28 571.12 1081.06 571.12ZM1147.57 583.28C1140.49 583.28 1135.16 581.275 1131.57 577.264C1127.99 573.168 1126.2 567.195 1126.2 559.344V498.8C1126.2 496.155 1126.88 494.149 1128.24 492.784C1129.61 491.419 1131.57 490.736 1134.13 490.736C1136.69 490.736 1138.65 491.419 1140.02 492.784C1141.47 494.149 1142.2 496.155 1142.2 498.8V558.576C1142.2 562.501 1143.01 565.403 1144.63 567.28C1146.33 569.157 1148.72 570.096 1151.8 570.096C1152.48 570.096 1153.12 570.096 1153.72 570.096C1154.31 570.011 1154.91 569.925 1155.51 569.84C1156.7 569.669 1157.51 570.011 1157.94 570.864C1158.37 571.632 1158.58 573.253 1158.58 575.728C1158.58 577.861 1158.15 579.525 1157.3 580.72C1156.45 581.915 1155.04 582.64 1153.08 582.896C1152.22 582.981 1151.33 583.067 1150.39 583.152C1149.45 583.237 1148.51 583.28 1147.57 583.28ZM1175.01 582.896C1172.45 582.896 1170.48 582.128 1169.12 580.592C1167.75 579.056 1167.07 576.923 1167.07 574.192V527.216C1167.07 524.4 1167.75 522.267 1169.12 520.816C1170.48 519.28 1172.45 518.512 1175.01 518.512C1177.57 518.512 1179.53 519.28 1180.89 520.816C1182.34 522.267 1183.07 524.4 1183.07 527.216V574.192C1183.07 576.923 1182.39 579.056 1181.02 580.592C1179.66 582.128 1177.65 582.896 1175.01 582.896ZM1175.01 506.608C1172.02 506.608 1169.67 505.883 1167.97 504.432C1166.34 502.896 1165.53 500.805 1165.53 498.16C1165.53 495.429 1166.34 493.339 1167.97 491.888C1169.67 490.437 1172.02 489.712 1175.01 489.712C1178.08 489.712 1180.42 490.437 1182.05 491.888C1183.67 493.339 1184.48 495.429 1184.48 498.16C1184.48 500.805 1183.67 502.896 1182.05 504.432C1180.42 505.883 1178.08 506.608 1175.01 506.608ZM1211.98 583.024C1209.42 583.024 1207.42 582.341 1205.97 580.976C1204.6 579.525 1203.92 577.477 1203.92 574.832V531.44H1198.03C1195.98 531.44 1194.4 530.928 1193.3 529.904C1192.19 528.795 1191.63 527.301 1191.63 525.424C1191.63 523.461 1192.19 521.968 1193.3 520.944C1194.4 519.92 1195.98 519.408 1198.03 519.408H1208.53L1203.92 523.632V519.28C1203.92 510.661 1206.1 504.133 1210.45 499.696C1214.8 495.259 1221.11 492.613 1229.39 491.76L1233.23 491.376C1235.19 491.205 1236.73 491.461 1237.84 492.144C1239.03 492.827 1239.8 493.765 1240.14 494.96C1240.57 496.069 1240.66 497.264 1240.4 498.544C1240.14 499.739 1239.63 500.805 1238.86 501.744C1238.1 502.597 1237.11 503.067 1235.92 503.152L1232.85 503.408C1228.32 503.749 1225.04 504.987 1222.99 507.12C1220.94 509.253 1219.92 512.453 1219.92 516.72V521.456L1217.87 519.408H1253.33C1255.89 519.408 1257.85 520.176 1259.22 521.712C1260.58 523.163 1261.26 525.253 1261.26 527.984V574.192C1261.26 576.923 1260.58 579.056 1259.22 580.592C1257.94 582.128 1255.97 582.896 1253.33 582.896C1250.77 582.896 1248.76 582.128 1247.31 580.592C1245.95 579.056 1245.26 576.923 1245.26 574.192V531.44H1219.92V574.832C1219.92 580.293 1217.27 583.024 1211.98 583.024ZM1253.58 506.608C1250.68 506.608 1248.42 505.883 1246.8 504.432C1245.26 502.896 1244.5 500.805 1244.5 498.16C1244.5 495.429 1245.26 493.339 1246.8 491.888C1248.42 490.437 1250.68 489.712 1253.58 489.712C1256.57 489.712 1258.83 490.437 1260.37 491.888C1261.99 493.339 1262.8 495.429 1262.8 498.16C1262.8 500.805 1261.99 502.896 1260.37 504.432C1258.83 505.883 1256.57 506.608 1253.58 506.608ZM1308.79 583.28C1301.71 583.28 1295.61 581.957 1290.49 579.312C1285.37 576.667 1281.4 572.912 1278.59 568.048C1275.85 563.184 1274.49 557.424 1274.49 550.768C1274.49 544.283 1275.81 538.608 1278.46 533.744C1281.19 528.88 1284.9 525.083 1289.59 522.352C1294.37 519.536 1299.79 518.128 1305.85 518.128C1310.29 518.128 1314.25 518.853 1317.75 520.304C1321.34 521.755 1324.37 523.845 1326.84 526.576C1329.4 529.307 1331.32 532.635 1332.6 536.56C1333.97 540.4 1334.65 544.752 1334.65 549.616C1334.65 551.152 1334.09 552.347 1332.99 553.2C1331.96 553.968 1330.47 554.352 1328.51 554.352H1287.42V545.136H1323.39L1321.34 547.056C1321.34 543.131 1320.74 539.845 1319.55 537.2C1318.44 534.555 1316.77 532.549 1314.55 531.184C1312.42 529.733 1309.73 529.008 1306.49 529.008C1302.91 529.008 1299.83 529.861 1297.27 531.568C1294.8 533.189 1292.88 535.536 1291.51 538.608C1290.23 541.595 1289.59 545.179 1289.59 549.36V550.256C1289.59 557.253 1291.21 562.501 1294.46 566C1297.79 569.413 1302.65 571.12 1309.05 571.12C1311.27 571.12 1313.74 570.864 1316.47 570.352C1319.29 569.755 1321.93 568.773 1324.41 567.408C1326.2 566.384 1327.78 565.957 1329.15 566.128C1330.51 566.213 1331.58 566.683 1332.35 567.536C1333.2 568.389 1333.71 569.456 1333.88 570.736C1334.05 571.931 1333.8 573.168 1333.11 574.448C1332.52 575.728 1331.45 576.837 1329.91 577.776C1326.93 579.653 1323.47 581.061 1319.55 582C1315.71 582.853 1312.12 583.28 1308.79 583.28ZM1371.38 583.28C1365.92 583.28 1361.1 581.957 1356.92 579.312C1352.82 576.667 1349.62 572.912 1347.32 568.048C1345.02 563.099 1343.86 557.296 1343.86 550.64C1343.86 543.899 1345.02 538.139 1347.32 533.36C1349.62 528.496 1352.82 524.741 1356.92 522.096C1361.1 519.451 1365.92 518.128 1371.38 518.128C1376.59 518.128 1381.11 519.408 1384.95 521.968C1388.88 524.528 1391.52 527.899 1392.89 532.08H1391.48V498.8C1391.48 496.155 1392.16 494.149 1393.53 492.784C1394.89 491.419 1396.86 490.736 1399.42 490.736C1401.98 490.736 1403.94 491.419 1405.3 492.784C1406.75 494.149 1407.48 496.155 1407.48 498.8V574.832C1407.48 577.477 1406.8 579.525 1405.43 580.976C1404.07 582.341 1402.1 583.024 1399.54 583.024C1396.98 583.024 1395.02 582.341 1393.66 580.976C1392.29 579.525 1391.61 577.477 1391.61 574.832V564.848L1393.02 568.688C1391.74 573.125 1389.13 576.667 1385.21 579.312C1381.28 581.957 1376.67 583.28 1371.38 583.28ZM1375.86 571.12C1379.02 571.12 1381.79 570.352 1384.18 568.816C1386.57 567.28 1388.41 565.019 1389.69 562.032C1391.05 558.96 1391.74 555.163 1391.74 550.64C1391.74 543.813 1390.29 538.736 1387.38 535.408C1384.48 531.995 1380.64 530.288 1375.86 530.288C1372.71 530.288 1369.93 531.056 1367.54 532.592C1365.15 534.043 1363.28 536.304 1361.91 539.376C1360.63 542.363 1359.99 546.117 1359.99 550.64C1359.99 557.381 1361.44 562.501 1364.34 566C1367.25 569.413 1371.09 571.12 1375.86 571.12Z" fill="white"/>
<defs>
<linearGradient id="paint0_linear_730_201" x1="545.683" y1="8.67777e-05" x2="1393.32" y2="1080" gradientUnits="userSpaceOnUse">
<stop offset="0.39" stop-color="#6ADDFF"/>
<stop offset="0.88" stop-color="#06C6FF"/>
</linearGradient>
</defs>
</svg>
