<svg width="1920" height="1080" viewBox="0 0 1920 1080" fill="none" xmlns="http://www.w3.org/2000/svg">
<rect width="1920" height="1080" fill="url(#paint0_linear_733_2)"/>
<g filter="url(#filter0_dd_733_2)">
<path d="M959.818 785.088H790.85C768.684 785.088 749.425 773.177 740.341 753.91C731.256 734.643 734.527 712.573 748.698 696.458L888.234 540.569C888.234 540.569 888.234 539.869 888.234 539.518L748.698 383.629C734.163 367.515 730.893 345.445 740.341 326.178C749.788 306.911 769.047 295 790.85 295H959.818L1010.33 320.923L959.818 347.897H790.486C790.486 347.897 790.123 348.598 790.123 348.948C790.123 348.948 790.123 348.948 790.123 349.298L929.658 505.188C947.464 525.155 947.464 555.282 929.658 575.25L790.123 731.139C790.123 731.139 790.123 731.139 790.123 731.49C790.123 731.49 790.123 732.541 790.486 732.541C790.486 732.541 790.486 732.541 790.85 732.541H959.818V785.438V785.088Z" fill="white"/>
<path d="M1031.77 540.569C1031.77 540.569 1031.77 539.869 1031.77 539.518L1171.3 383.629C1185.84 367.515 1189.11 345.445 1179.66 326.178C1170.21 306.911 1150.95 295 1129.15 295H960.182L1010.69 320.923L960.182 347.547H1129.51C1129.51 347.547 1129.88 348.248 1129.88 348.598C1129.88 348.598 1129.88 348.598 1129.88 348.948L990.342 504.837C972.536 524.805 972.536 554.932 990.342 574.9L1129.88 730.789C1129.88 730.789 1129.88 730.789 1129.88 731.139C1129.88 731.139 1129.88 732.19 1129.51 732.19C1129.51 732.19 1129.51 732.19 1129.15 732.19H959.818L908.946 759.515L959.818 784.737H1128.79C1150.95 784.737 1170.21 772.827 1179.3 753.559C1188.38 734.292 1185.11 712.222 1170.94 696.108L1031.4 540.219L1031.77 540.569Z" fill="white"/>
</g>
<defs>
<filter id="filter0_dd_733_2" x="724" y="288" width="472" height="512.438" filterUnits="userSpaceOnUse" color-interpolation-filters="sRGB">
<feFlood flood-opacity="0" result="BackgroundImageFix"/>
<feColorMatrix in="SourceAlpha" type="matrix" values="0 0 0 0 0 0 0 0 0 0 0 0 0 0 0 0 0 0 127 0" result="hardAlpha"/>
<feOffset dy="1"/>
<feGaussianBlur stdDeviation="1.5"/>
<feColorMatrix type="matrix" values="0 0 0 0 0 0 0 0 0 0 0 0 0 0 0 0 0 0 0.3 0"/>
<feBlend mode="normal" in2="BackgroundImageFix" result="effect1_dropShadow_733_2"/>
<feColorMatrix in="SourceAlpha" type="matrix" values="0 0 0 0 0 0 0 0 0 0 0 0 0 0 0 0 0 0 127 0" result="hardAlpha"/>
<feMorphology radius="3" operator="dilate" in="SourceAlpha" result="effect2_dropShadow_733_2"/>
<feOffset dy="4"/>
<feGaussianBlur stdDeviation="4"/>
<feColorMatrix type="matrix" values="0 0 0 0 0 0 0 0 0 0 0 0 0 0 0 0 0 0 0.15 0"/>
<feBlend mode="normal" in2="effect1_dropShadow_733_2" result="effect2_dropShadow_733_2"/>
<feBlend mode="normal" in="SourceGraphic" in2="effect2_dropShadow_733_2" result="shape"/>
</filter>
<linearGradient id="paint0_linear_733_2" x1="545.683" y1="8.67777e-05" x2="1393.32" y2="1080" gradientUnits="userSpaceOnUse">
<stop offset="0.39" stop-color="#6ADDFF"/>
<stop offset="0.88" stop-color="#06C6FF"/>
</linearGradient>
</defs>
</svg>
