<svg width="1500" height="500" viewBox="0 0 1500 500" fill="none" xmlns="http://www.w3.org/2000/svg">
<rect width="1500" height="500" fill="url(#paint0_linear_730_196)"/>
<path d="M429.264 281C427.536 281 426.192 280.552 425.232 279.656C424.336 278.696 423.888 277.352 423.888 275.624V218.696C423.888 216.968 424.336 215.656 425.232 214.76C426.192 213.8 427.536 213.32 429.264 213.32H447.792C458.928 213.32 467.504 216.232 473.52 222.056C479.6 227.816 482.64 236.168 482.64 247.112C482.64 252.552 481.872 257.384 480.336 261.608C478.8 265.832 476.528 269.384 473.52 272.264C470.576 275.08 466.96 277.256 462.672 278.792C458.384 280.264 453.424 281 447.792 281H429.264ZM433.872 272.648H447.216C451.44 272.648 455.088 272.136 458.16 271.112C461.296 270.024 463.92 268.424 466.032 266.312C468.144 264.2 469.712 261.544 470.736 258.344C471.76 255.144 472.272 251.4 472.272 247.112C472.272 238.6 470.16 232.232 465.936 228.008C461.776 223.784 455.536 221.672 447.216 221.672H433.872V272.648ZM516.909 281.864C511.789 281.864 507.373 280.904 503.661 278.984C500.013 277 497.165 274.216 495.117 270.632C493.133 266.984 492.141 262.664 492.141 257.672C492.141 252.808 493.133 248.552 495.117 244.904C497.101 241.256 499.821 238.408 503.277 236.36C506.733 234.312 510.669 233.288 515.085 233.288C518.349 233.288 521.261 233.832 523.821 234.92C526.381 235.944 528.557 237.48 530.349 239.528C532.205 241.512 533.581 243.944 534.477 246.824C535.437 249.704 535.917 252.936 535.917 256.52C535.917 257.608 535.597 258.44 534.957 259.016C534.317 259.528 533.357 259.784 532.077 259.784H499.821V253.832H529.389L527.757 255.176C527.757 251.976 527.277 249.256 526.317 247.016C525.421 244.776 524.045 243.08 522.189 241.928C520.397 240.712 518.157 240.104 515.469 240.104C512.461 240.104 509.901 240.808 507.789 242.216C505.741 243.624 504.173 245.576 503.085 248.072C501.997 250.568 501.453 253.48 501.453 256.808V257.384C501.453 263.016 502.765 267.272 505.389 270.152C508.077 272.968 511.949 274.376 517.005 274.376C518.925 274.376 520.941 274.12 523.053 273.608C525.229 273.096 527.277 272.232 529.197 271.016C530.285 270.376 531.245 270.088 532.077 270.152C532.973 270.216 533.677 270.504 534.189 271.016C534.765 271.528 535.117 272.168 535.245 272.936C535.373 273.704 535.245 274.504 534.861 275.336C534.477 276.104 533.805 276.808 532.845 277.448C530.669 278.92 528.141 280.04 525.261 280.808C522.381 281.512 519.597 281.864 516.909 281.864ZM552.824 281.672C551.16 281.672 549.848 281.224 548.888 280.328C547.992 279.432 547.544 278.12 547.544 276.392V218.696C547.544 216.968 547.992 215.656 548.888 214.76C549.848 213.8 551.192 213.32 552.92 213.32H587.096C588.504 213.32 589.528 213.672 590.168 214.376C590.872 215.016 591.224 215.976 591.224 217.256C591.224 218.6 590.872 219.624 590.168 220.328C589.528 221.032 588.504 221.384 587.096 221.384H557.528V242.984H585.176C586.456 242.984 587.448 243.336 588.152 244.04C588.92 244.68 589.304 245.64 589.304 246.92C589.304 248.264 588.92 249.288 588.152 249.992C587.448 250.696 586.456 251.048 585.176 251.048H557.528V276.392C557.528 279.912 555.96 281.672 552.824 281.672ZM607.163 281.576C605.627 281.576 604.443 281.128 603.611 280.232C602.779 279.272 602.363 277.96 602.363 276.296V238.856C602.363 237.192 602.779 235.912 603.611 235.016C604.443 234.12 605.627 233.672 607.163 233.672C608.699 233.672 609.883 234.12 610.715 235.016C611.611 235.912 612.059 237.192 612.059 238.856V276.296C612.059 277.96 611.643 279.272 610.811 280.232C609.979 281.128 608.763 281.576 607.163 281.576ZM607.163 223.688C605.243 223.688 603.739 223.208 602.651 222.248C601.627 221.288 601.115 219.944 601.115 218.216C601.115 216.424 601.627 215.08 602.651 214.184C603.739 213.224 605.243 212.744 607.163 212.744C609.083 212.744 610.555 213.224 611.579 214.184C612.667 215.08 613.211 216.424 613.211 218.216C613.211 219.944 612.667 221.288 611.579 222.248C610.555 223.208 609.083 223.688 607.163 223.688ZM674.635 281.864C671.691 281.864 668.811 281.64 665.995 281.192C663.179 280.744 660.523 280.072 658.027 279.176C655.531 278.216 653.291 277.064 651.307 275.72C650.347 275.016 649.675 274.216 649.291 273.32C648.971 272.424 648.875 271.56 649.003 270.728C649.195 269.832 649.579 269.064 650.155 268.424C650.731 267.784 651.435 267.4 652.267 267.272C653.099 267.08 654.027 267.336 655.051 268.04C657.931 269.896 660.971 271.272 664.171 272.168C667.371 273 670.859 273.416 674.635 273.416C680.075 273.416 684.075 272.456 686.635 270.536C689.259 268.552 690.571 265.992 690.571 262.856C690.571 260.296 689.643 258.28 687.787 256.808C685.931 255.272 682.827 254.056 678.475 253.16L668.203 251.048C662.123 249.768 657.579 247.656 654.571 244.712C651.627 241.768 650.155 237.8 650.155 232.808C650.155 229.8 650.763 227.048 651.979 224.552C653.259 222.056 655.019 219.912 657.259 218.12C659.499 216.264 662.187 214.856 665.323 213.896C668.459 212.936 671.883 212.456 675.595 212.456C679.563 212.456 683.275 212.968 686.731 213.992C690.251 215.016 693.387 216.584 696.139 218.696C696.971 219.272 697.515 220.008 697.771 220.904C698.091 221.736 698.155 222.568 697.963 223.4C697.835 224.232 697.483 224.936 696.907 225.512C696.331 226.088 695.595 226.44 694.699 226.568C693.803 226.632 692.811 226.312 691.723 225.608C689.227 223.944 686.667 222.76 684.043 222.056C681.483 221.288 678.635 220.904 675.499 220.904C672.363 220.904 669.611 221.384 667.243 222.344C664.939 223.304 663.147 224.648 661.867 226.376C660.651 228.104 660.043 230.152 660.043 232.52C660.043 235.208 660.907 237.352 662.635 238.952C664.363 240.552 667.243 241.768 671.275 242.6L681.451 244.712C687.851 246.056 692.619 248.136 695.755 250.952C698.891 253.768 700.459 257.512 700.459 262.184C700.459 265.192 699.851 267.912 698.635 270.344C697.419 272.712 695.691 274.76 693.451 276.488C691.211 278.216 688.491 279.56 685.291 280.52C682.155 281.416 678.603 281.864 674.635 281.864ZM715.538 281.576C714.002 281.576 712.818 281.128 711.986 280.232C711.154 279.272 710.738 277.96 710.738 276.296V238.856C710.738 237.192 711.154 235.912 711.986 235.016C712.818 234.12 714.002 233.672 715.538 233.672C717.074 233.672 718.258 234.12 719.09 235.016C719.986 235.912 720.434 237.192 720.434 238.856V276.296C720.434 277.96 720.018 279.272 719.186 280.232C718.354 281.128 717.138 281.576 715.538 281.576ZM715.538 223.688C713.618 223.688 712.114 223.208 711.026 222.248C710.002 221.288 709.49 219.944 709.49 218.216C709.49 216.424 710.002 215.08 711.026 214.184C712.114 213.224 713.618 212.744 715.538 212.744C717.458 212.744 718.93 213.224 719.954 214.184C721.042 215.08 721.586 216.424 721.586 218.216C721.586 219.944 721.042 221.288 719.954 222.248C718.93 223.208 717.458 223.688 715.538 223.688ZM739.074 281.672C737.538 281.672 736.354 281.256 735.522 280.424C734.69 279.528 734.274 278.312 734.274 276.776V238.376C734.274 236.776 734.69 235.56 735.522 234.728C736.354 233.896 737.506 233.48 738.978 233.48C740.514 233.48 741.666 233.896 742.434 234.728C743.266 235.56 743.682 236.776 743.682 238.376V246.248L742.626 244.136C743.906 240.744 745.89 238.088 748.578 236.168C751.266 234.248 754.498 233.288 758.274 233.288C762.178 233.288 765.346 234.216 767.778 236.072C770.21 237.928 771.874 240.776 772.77 244.616H771.426C772.642 241.096 774.722 238.344 777.666 236.36C780.61 234.312 784.034 233.288 787.938 233.288C791.522 233.288 794.466 233.992 796.77 235.4C799.074 236.744 800.802 238.824 801.954 241.64C803.106 244.392 803.682 247.88 803.682 252.104V276.776C803.682 278.312 803.234 279.528 802.338 280.424C801.506 281.256 800.322 281.672 798.786 281.672C797.25 281.672 796.066 281.256 795.234 280.424C794.402 279.528 793.986 278.312 793.986 276.776V252.584C793.986 248.616 793.282 245.704 791.874 243.848C790.53 241.992 788.29 241.064 785.154 241.064C781.634 241.064 778.85 242.28 776.802 244.712C774.754 247.144 773.73 250.504 773.73 254.792V276.776C773.73 278.312 773.314 279.528 772.482 280.424C771.65 281.256 770.466 281.672 768.93 281.672C767.394 281.672 766.178 281.256 765.282 280.424C764.45 279.528 764.034 278.312 764.034 276.776V252.584C764.034 248.616 763.362 245.704 762.018 243.848C760.674 241.992 758.434 241.064 755.298 241.064C751.778 241.064 748.994 242.28 746.946 244.712C744.962 247.144 743.97 250.504 743.97 254.792V276.776C743.97 280.04 742.338 281.672 739.074 281.672ZM822.038 298.952C820.502 298.952 819.318 298.536 818.486 297.704C817.654 296.872 817.238 295.656 817.238 294.056V238.376C817.238 236.776 817.654 235.56 818.486 234.728C819.318 233.896 820.47 233.48 821.942 233.48C823.478 233.48 824.662 233.896 825.494 234.728C826.326 235.56 826.742 236.776 826.742 238.376V246.728L825.686 244.712C826.71 241.256 828.726 238.504 831.734 236.456C834.742 234.344 838.294 233.288 842.39 233.288C846.55 233.288 850.166 234.28 853.238 236.264C856.374 238.248 858.774 241.032 860.438 244.616C862.166 248.2 863.03 252.52 863.03 257.576C863.03 262.504 862.166 266.824 860.438 270.536C858.774 274.184 856.406 277 853.334 278.984C850.262 280.904 846.614 281.864 842.39 281.864C838.358 281.864 834.838 280.84 831.83 278.792C828.822 276.744 826.806 274.024 825.782 270.632H826.934V294.056C826.934 295.656 826.486 296.872 825.59 297.704C824.758 298.536 823.574 298.952 822.038 298.952ZM839.99 274.376C842.678 274.376 845.014 273.736 846.998 272.456C848.982 271.176 850.518 269.288 851.606 266.792C852.694 264.296 853.238 261.224 853.238 257.576C853.238 252.072 852.022 247.912 849.59 245.096C847.222 242.28 844.022 240.872 839.99 240.872C837.366 240.872 835.03 241.512 832.982 242.792C830.998 244.008 829.462 245.864 828.374 248.36C827.286 250.856 826.742 253.928 826.742 257.576C826.742 263.016 827.958 267.176 830.39 270.056C832.822 272.936 836.022 274.376 839.99 274.376ZM889.029 281.864C884.037 281.864 880.261 280.424 877.701 277.544C875.205 274.6 873.957 270.376 873.957 264.872V217.544C873.957 215.944 874.373 214.728 875.205 213.896C876.037 213.064 877.221 212.648 878.757 212.648C880.293 212.648 881.477 213.064 882.309 213.896C883.205 214.728 883.653 215.944 883.653 217.544V264.296C883.653 267.496 884.293 269.896 885.573 271.496C886.917 273.032 888.837 273.8 891.333 273.8C891.909 273.8 892.421 273.8 892.869 273.8C893.317 273.736 893.765 273.672 894.213 273.608C894.981 273.544 895.525 273.768 895.845 274.28C896.165 274.728 896.325 275.688 896.325 277.16C896.325 278.504 896.037 279.56 895.461 280.328C894.885 281.032 893.957 281.48 892.677 281.672C892.101 281.736 891.493 281.768 890.853 281.768C890.213 281.832 889.605 281.864 889.029 281.864ZM908.1 281.576C906.564 281.576 905.38 281.128 904.548 280.232C903.716 279.272 903.3 277.96 903.3 276.296V238.856C903.3 237.192 903.716 235.912 904.548 235.016C905.38 234.12 906.564 233.672 908.1 233.672C909.636 233.672 910.82 234.12 911.652 235.016C912.548 235.912 912.996 237.192 912.996 238.856V276.296C912.996 277.96 912.58 279.272 911.748 280.232C910.916 281.128 909.7 281.576 908.1 281.576ZM908.1 223.688C906.18 223.688 904.676 223.208 903.588 222.248C902.564 221.288 902.052 219.944 902.052 218.216C902.052 216.424 902.564 215.08 903.588 214.184C904.676 213.224 906.18 212.744 908.1 212.744C910.02 212.744 911.492 213.224 912.516 214.184C913.604 215.08 914.148 216.424 914.148 218.216C914.148 219.944 913.604 221.288 912.516 222.248C911.492 223.208 910.02 223.688 908.1 223.688ZM934.324 281.672C932.788 281.672 931.572 281.256 930.676 280.424C929.844 279.528 929.428 278.312 929.428 276.776V241.64H924.052C922.836 241.64 921.876 241.32 921.172 240.68C920.468 239.976 920.116 239.048 920.116 237.896C920.116 236.68 920.468 235.752 921.172 235.112C921.876 234.472 922.836 234.152 924.052 234.152H932.212L929.428 236.744V233.288C929.428 227.08 930.964 222.344 934.036 219.08C937.108 215.816 941.62 213.896 947.572 213.32L950.452 213.128C951.604 213 952.532 213.16 953.236 213.608C953.94 213.992 954.42 214.568 954.676 215.336C954.932 216.04 954.964 216.776 954.772 217.544C954.58 218.312 954.228 218.984 953.716 219.56C953.268 220.072 952.692 220.36 951.988 220.424L949.396 220.616C945.812 220.872 943.188 221.928 941.524 223.784C939.924 225.64 939.124 228.36 939.124 231.944V235.688L937.78 234.152H964.084C965.684 234.152 966.9 234.632 967.732 235.592C968.564 236.488 968.98 237.736 968.98 239.336V276.296C968.98 277.96 968.564 279.272 967.732 280.232C966.964 281.128 965.748 281.576 964.084 281.576C962.548 281.576 961.364 281.128 960.532 280.232C959.7 279.272 959.284 277.96 959.284 276.296V241.64H939.124V276.776C939.124 280.04 937.524 281.672 934.324 281.672ZM964.276 223.688C962.42 223.688 960.98 223.208 959.956 222.248C958.932 221.288 958.42 219.944 958.42 218.216C958.42 216.424 958.932 215.08 959.956 214.184C960.98 213.224 962.42 212.744 964.276 212.744C966.196 212.744 967.636 213.224 968.596 214.184C969.62 215.08 970.132 216.424 970.132 218.216C970.132 219.944 969.62 221.288 968.596 222.248C967.636 223.208 966.196 223.688 964.276 223.688ZM1004.5 281.864C999.383 281.864 994.967 280.904 991.255 278.984C987.607 277 984.759 274.216 982.711 270.632C980.727 266.984 979.735 262.664 979.735 257.672C979.735 252.808 980.727 248.552 982.711 244.904C984.695 241.256 987.415 238.408 990.871 236.36C994.327 234.312 998.263 233.288 1002.68 233.288C1005.94 233.288 1008.86 233.832 1011.42 234.92C1013.98 235.944 1016.15 237.48 1017.94 239.528C1019.8 241.512 1021.18 243.944 1022.07 246.824C1023.03 249.704 1023.51 252.936 1023.51 256.52C1023.51 257.608 1023.19 258.44 1022.55 259.016C1021.91 259.528 1020.95 259.784 1019.67 259.784H987.415V253.832H1016.98L1015.35 255.176C1015.35 251.976 1014.87 249.256 1013.91 247.016C1013.02 244.776 1011.64 243.08 1009.78 241.928C1007.99 240.712 1005.75 240.104 1003.06 240.104C1000.06 240.104 997.495 240.808 995.383 242.216C993.335 243.624 991.767 245.576 990.679 248.072C989.591 250.568 989.047 253.48 989.047 256.808V257.384C989.047 263.016 990.359 267.272 992.983 270.152C995.671 272.968 999.543 274.376 1004.6 274.376C1006.52 274.376 1008.54 274.12 1010.65 273.608C1012.82 273.096 1014.87 272.232 1016.79 271.016C1017.88 270.376 1018.84 270.088 1019.67 270.152C1020.57 270.216 1021.27 270.504 1021.78 271.016C1022.36 271.528 1022.71 272.168 1022.84 272.936C1022.97 273.704 1022.84 274.504 1022.46 275.336C1022.07 276.104 1021.4 276.808 1020.44 277.448C1018.26 278.92 1015.74 280.04 1012.86 280.808C1009.98 281.512 1007.19 281.864 1004.5 281.864ZM1051.94 281.864C1047.84 281.864 1044.23 280.904 1041.09 278.984C1038.02 277 1035.62 274.184 1033.89 270.536C1032.16 266.824 1031.3 262.504 1031.3 257.576C1031.3 252.52 1032.16 248.2 1033.89 244.616C1035.62 241.032 1038.02 238.248 1041.09 236.264C1044.23 234.28 1047.84 233.288 1051.94 233.288C1056.03 233.288 1059.55 234.312 1062.5 236.36C1065.51 238.344 1067.52 241.032 1068.55 244.424H1067.49V217.544C1067.49 215.944 1067.91 214.728 1068.74 213.896C1069.57 213.064 1070.75 212.648 1072.29 212.648C1073.83 212.648 1075.01 213.064 1075.84 213.896C1076.74 214.728 1077.19 215.944 1077.19 217.544V276.776C1077.19 278.312 1076.77 279.528 1075.94 280.424C1075.11 281.256 1073.92 281.672 1072.39 281.672C1070.85 281.672 1069.67 281.256 1068.83 280.424C1068 279.528 1067.59 278.312 1067.59 276.776V268.328L1068.64 270.44C1067.62 273.896 1065.6 276.68 1062.59 278.792C1059.65 280.84 1056.1 281.864 1051.94 281.864ZM1054.43 274.376C1057.06 274.376 1059.36 273.736 1061.35 272.456C1063.33 271.176 1064.87 269.288 1065.95 266.792C1067.11 264.296 1067.68 261.224 1067.68 257.576C1067.68 252.072 1066.47 247.912 1064.03 245.096C1061.6 242.28 1058.4 240.872 1054.43 240.872C1051.75 240.872 1049.41 241.512 1047.43 242.792C1045.44 244.008 1043.87 245.864 1042.72 248.36C1041.63 250.856 1041.09 253.928 1041.09 257.576C1041.09 263.016 1042.31 267.176 1044.74 270.056C1047.17 272.936 1050.4 274.376 1054.43 274.376Z" fill="white"/>
<defs>
<linearGradient id="paint0_linear_730_196" x1="426.315" y1="4.01748e-05" x2="735.275" y2="664.296" gradientUnits="userSpaceOnUse">
<stop offset="0.39" stop-color="#6ADDFF"/>
<stop offset="0.88" stop-color="#06C6FF"/>
</linearGradient>
</defs>
</svg>
